<svg width="763" height="1080" viewBox="0 0 763 1080" fill="none" xmlns="http://www.w3.org/2000/svg">
<g opacity="0.1">
<path d="M438.797 -147L-9.64417 264.679L-458.324 -147L-782 1079.73H-637.035L-380.375 106.798L-9.64417 446.301L360.612 106.56L617.984 1079.73L762.712 1079.96L438.797 -147Z" fill="url(#paint0_radial_702_1048)"/>
<path d="M-9.64618 518.718L-344.017 217.674L-561.703 1079.73H-417.45L-263.69 469.81L-9.64618 699.392L243.925 470.759L397.683 1079.73H542.172L324.25 217.438L-9.64618 518.718Z" fill="url(#paint1_radial_702_1048)"/>
<path d="M246.069 725.274L213.512 574.991L-144.624 886.48L-102.086 690.137L-233.504 572.379L-342.348 1079.74H-186.449L-24.1367 946.547L125.581 1079.97L320.215 1079.74L77.576 863.213L246.069 725.274Z" fill="url(#paint2_radial_702_1048)"/>
</g>
<defs>
<radialGradient id="paint0_radial_702_1048" cx="0" cy="0" r="1" gradientUnits="userSpaceOnUse" gradientTransform="translate(-9.64417 466.482) rotate(90) scale(613.482 772.356)">
<stop stop-color="#0D6DD0"/>
<stop offset="1" stop-color="#004E9E"/>
</radialGradient>
<radialGradient id="paint1_radial_702_1048" cx="0" cy="0" r="1" gradientUnits="userSpaceOnUse" gradientTransform="translate(-9.76532 648.585) rotate(90) scale(431.147 551.937)">
<stop stop-color="#0D6DD0"/>
<stop offset="1" stop-color="#004E9E"/>
</radialGradient>
<radialGradient id="paint2_radial_702_1048" cx="0" cy="0" r="1" gradientUnits="userSpaceOnUse" gradientTransform="translate(-11.0663 826.176) rotate(90) scale(253.797 331.281)">
<stop stop-color="#0D6DD0"/>
<stop offset="1" stop-color="#004E9E"/>
</radialGradient>
</defs>
</svg>
