<svg width="12" height="15" viewBox="0 0 12 15" fill="none" xmlns="http://www.w3.org/2000/svg">
<path d="M0.857143 13.3333C0.857143 14.25 1.62857 15 2.57143 15H9.42857C10.3714 15 11.1429 14.25 11.1429 13.3333V3.33333H0.857143V13.3333ZM3.57429 7.99167C3.24 7.66667 3.24 7.14167 3.57429 6.81667C3.90857 6.49167 4.44857 6.49167 4.78286 6.81667L6 7.99167L7.20857 6.81667C7.54286 6.49167 8.08286 6.49167 8.41714 6.81667C8.75143 7.14167 8.75143 7.66667 8.41714 7.99167L7.20857 9.16667L8.41714 10.3417C8.75143 10.6667 8.75143 11.1917 8.41714 11.5167C8.08286 11.8417 7.54286 11.8417 7.20857 11.5167L6 10.3417L4.79143 11.5167C4.45714 11.8417 3.91714 11.8417 3.58286 11.5167C3.24857 11.1917 3.24857 10.6667 3.58286 10.3417L4.79143 9.16667L3.57429 7.99167ZM11.1429 0.833333H9L8.39143 0.241667C8.23714 0.0916666 8.01429 0 7.79143 0H4.20857C3.98571 0 3.76286 0.0916666 3.60857 0.241667L3 0.833333H0.857143C0.385714 0.833333 0 1.20833 0 1.66667C0 2.125 0.385714 2.5 0.857143 2.5H11.1429C11.6143 2.5 12 2.125 12 1.66667C12 1.20833 11.6143 0.833333 11.1429 0.833333Z"/>
</svg>
