<svg width="756" height="466" viewBox="0 0 756 466" fill="none" xmlns="http://www.w3.org/2000/svg">
    <path opacity="0.15" d="M567.639 -716.15C830.143 -786.487 1099.96 -630.706 1170.3 -368.202C1240.64 -105.698 1084.86 164.123 822.354 234.461C559.85 304.799 290.029 149.017 219.691 -113.487C149.353 -375.991 305.135 -645.812 567.639 -716.15ZM799.425 148.888C1014.67 91.2139 1142.4 -130.029 1084.73 -345.273C1027.05 -560.516 805.811 -688.251 590.568 -630.577C375.325 -572.903 247.59 -351.659 305.264 -136.416C362.938 78.8275 584.182 206.562 799.425 148.888Z" fill="url(#paint0_linear_0_1)" fill-opacity="0.9"/>
    <path opacity="0.15" d="M1278.79 -353.215C1371.69 -6.49855 1165.93 349.883 819.214 442.785C472.498 535.687 116.117 329.93 23.2145 -16.7859C-69.6878 -363.502 136.069 -719.883 482.785 -812.786C829.502 -905.688 1185.88 -699.931 1278.79 -353.215ZM136.24 -47.0708C212.416 237.223 504.635 405.936 788.929 329.76C1073.22 253.584 1241.94 -38.6357 1165.76 -322.93C1089.58 -607.224 797.365 -775.937 513.07 -699.761C228.776 -623.584 60.0633 -331.365 136.24 -47.0708Z" fill="url(#paint1_linear_0_1)" fill-opacity="0.9"/>
    <defs>
        <linearGradient id="paint0_linear_0_1" x1="154.326" y1="-0.268669" x2="1104.94" y2="-254.984" gradientUnits="userSpaceOnUse">
            <stop stop-color="#004E9E" stop-opacity="0.99"/>
            <stop offset="0.497674" stop-color="white" stop-opacity="0.8"/>
            <stop offset="1" stop-color="#004E9E"/>
        </linearGradient>
        <linearGradient id="paint1_linear_0_1" x1="105.551" y1="-574.55" x2="1281.83" y2="178.959" gradientUnits="userSpaceOnUse">
            <stop stop-color="#004E9E"/>
            <stop offset="0.497674" stop-color="white" stop-opacity="0.8"/>
            <stop offset="1" stop-color="#004E9E"/>
        </linearGradient>
    </defs>
</svg>
