<svg width="26" height="26" viewBox="0 0 26 26" fill="none" xmlns="http://www.w3.org/2000/svg">
<path d="M20.2281 7.3229L19.4471 5.50778L17.7114 4.69098C17.2279 4.4576 17.2279 3.74452 17.7114 3.51115L19.4471 2.69435L20.2281 0.87923C20.4512 0.37359 21.1331 0.37359 21.3562 0.87923L22.1373 2.69435L23.8729 3.51115C24.3564 3.74452 24.3564 4.4576 23.8729 4.69098L22.1373 5.50778L21.3562 7.3229C21.1455 7.82854 20.4512 7.82854 20.2281 7.3229ZM24.2448 13.4554L23.8481 12.5219C23.6249 12.0163 22.9431 12.0163 22.7199 12.5219L22.3232 13.4554L21.4182 13.8703C20.9347 14.1037 20.9347 14.8167 21.4182 15.0501L22.3108 15.465L22.7075 16.4114C22.9307 16.9171 23.6125 16.9171 23.8357 16.4114L24.2324 15.478L25.1374 15.0631C25.6209 14.8297 25.6209 14.1166 25.1374 13.8833L24.2448 13.4554ZM17.9966 15.5946L19.5214 16.8004C20.0173 17.1894 20.1537 17.9154 19.8438 18.4859L17.8354 22.1161C17.5255 22.6866 16.856 22.9199 16.2858 22.6606L14.513 21.8827C14.265 22.0513 13.9923 22.2198 13.7195 22.3624L13.484 24.3591C13.4096 25.0073 12.8765 25.5 12.2567 25.5H8.25236C7.6325 25.5 7.09941 25.0073 7.02503 24.3591L6.78948 22.3624C6.51674 22.2198 6.2564 22.0642 5.99606 21.8827L4.22326 22.6606C3.65298 22.9199 2.98353 22.6866 2.6736 22.1161L0.665253 18.4859C0.355322 17.9154 0.491691 17.2023 0.98758 16.8004L2.51244 15.5946C2.51244 15.4391 2.51244 15.2705 2.51244 15.1149C2.51244 14.9594 2.51244 14.7908 2.52484 14.6352L0.999978 13.4295C0.504089 13.0405 0.367719 12.3145 0.67765 11.744L2.686 8.11377C2.99593 7.5433 3.66538 7.30993 4.23565 7.56923L6.00846 8.34714C6.2564 8.1786 6.52914 8.01005 6.80188 7.86743L7.03743 5.8708C7.09941 5.23551 7.6325 4.74284 8.25236 4.74284H12.2567C12.8765 4.74284 13.4096 5.23551 13.484 5.88377L13.7195 7.8804C13.9923 8.02301 14.2526 8.1786 14.513 8.36011L16.2858 7.5822C16.856 7.3229 17.5255 7.55627 17.8354 8.12673L19.8438 11.757C20.1537 12.3274 20.0173 13.0405 19.5214 13.4424L17.9966 14.6482C18.009 14.8038 18.009 14.9594 18.009 15.1279C18.009 15.2964 18.009 15.4391 17.9966 15.5946ZM13.9799 15.1149C13.9799 12.9627 12.3186 11.2254 10.2607 11.2254C8.20277 11.2254 6.54154 12.9627 6.54154 15.1149C6.54154 17.2671 8.20277 19.0045 10.2607 19.0045C12.3186 19.0045 13.9799 17.2671 13.9799 15.1149Z"/>
</svg>
